<?xml version="1.0"?>
<svg version="1.1" xmlns="http://www.w3.org/2000/svg" xmlns:xlink="http://www.w3.org/1999/xlink" width="1792" height="1792">
    <desc iVinci="yes" version="4.6" gridStep="20" showGrid="no" snapToGrid="no" codePlatform="0"/>
    <g id="Layer1" name="Layer 1" opacity="1">
        <g id="Shape1">
            <desc shapeID="1" type="0" basicInfo-basicType="0" basicInfo-roundedRectRadius="12" basicInfo-polygonSides="6" basicInfo-starPoints="5" bounding="rect(-320,-732.946,640,1465.89)" text="" font-familyName="" font-pixelSize="20" font-bold="0" font-underline="0" font-alignment="1" strokeStyle="0" markerStart="0" markerEnd="0" shadowEnabled="0" shadowOffsetX="0" shadowOffsetY="2" shadowBlur="4" shadowOpacity="160" blurEnabled="0" blurRadius="4" transform="matrix(0.775027,0.775029,-0.775029,0.775027,1112.28,1112.28)" pers-center="0,0" pers-size="0,0" pers-start="0,0" pers-end="0,0" locked="0" mesh="" flag=""/>
            <path id="shapePath1" d="M1755.75,667.22 L941.038,1481.92 L1040.24,1581.13 C1053.68,1594.56 1060.39,1611.1 1060.39,1630.73 C1060.39,1650.36 1053.68,1666.9 1040.24,1680.33 C1026.81,1693.77 1010.27,1700.48 990.64,1700.48 L593.825,1700.48 C574.191,1700.48 557.657,1693.76 544.224,1680.33 C530.79,1666.9 524.073,1650.36 524.073,1630.73 L524.074,1233.91 C524.074,1214.28 530.791,1197.75 544.225,1184.31 C557.659,1170.88 574.192,1164.16 593.826,1164.16 C613.46,1164.16 629.994,1170.88 643.428,1184.31 L742.632,1283.52 L1557.34,468.812 C1581.13,445.021 1581.13,445.021 1602.71,466.605 L1753.57,617.465 C1779.54,643.429 1779.54,643.429 1755.75,667.22 Z" style="stroke:none;fill-rule:evenodd;fill:#000000;fill-opacity:1;"/>
        </g>
        <g id="Shape2">
            <desc shapeID="2" type="0" basicInfo-basicType="0" basicInfo-roundedRectRadius="12" basicInfo-polygonSides="6" basicInfo-starPoints="5" bounding="rect(-320,-732.946,640,1465.89)" text="" font-familyName="" font-pixelSize="20" font-bold="0" font-underline="0" font-alignment="1" strokeStyle="0" markerStart="0" markerEnd="0" shadowEnabled="0" shadowOffsetX="0" shadowOffsetY="2" shadowBlur="4" shadowOpacity="160" blurEnabled="0" blurRadius="4" transform="matrix(-0.775022,-0.775034,0.775034,-0.775022,679.724,679.721)" pers-center="0,0" pers-size="0,0" pers-start="0,0" pers-end="0,0" locked="0" mesh="" flag=""/>
            <path id="shapePath2" d="M36.2543,1124.78 L850.967,310.076 L751.764,210.872 C738.33,197.438 731.613,180.904 731.614,161.27 C731.614,141.636 738.331,125.102 751.765,111.668 C765.199,98.2344 781.733,91.5177 801.367,91.5178 L1198.18,91.5208 C1217.81,91.5211 1234.35,98.238 1247.78,111.672 C1261.22,125.106 1267.93,141.64 1267.93,161.274 L1267.93,558.088 C1267.93,577.722 1261.21,594.256 1247.78,607.69 C1234.34,621.124 1217.81,627.84 1198.18,627.84 C1178.54,627.84 1162.01,621.123 1148.58,607.689 L1049.37,508.485 L234.66,1323.18 C210.869,1346.98 210.869,1346.98 189.285,1325.39 L38.4276,1174.53 C12.4634,1148.57 12.4634,1148.57 36.2543,1124.78 Z" style="stroke:none;fill-rule:evenodd;fill:#000000;fill-opacity:1;"/>
        </g>
    </g>
</svg>
