<svg xmlns="http://www.w3.org/2000/svg" viewBox="0 0 256 256"><path d="M142.4,84.8h104c4.8,0,8.7-3.9,8.7-8.7s-3.9-8.7-8.7-8.7h-104c-4.8,0-8.7,3.9-8.7,8.7S137.7,84.8,142.4,84.8z"/><path d="M246.4,171.5h-104c-4.8,0-8.7,3.9-8.7,8.7c0,4.8,3.9,8.7,8.7,8.7h104c4.8,0,8.7-3.9,8.7-8.7C255.1,175.3,251.2,171.5,246.4,171.5z"/><path d="M247.1,102.2H166c-4.4,0-7.9,3.6-7.9,7.9v1.4c0,4.4,3.6,7.9,7.9,7.9h81.2c4.4,0,7.9-3.6,7.9-7.9v-1.4C255.1,105.7,251.5,102.2,247.1,102.2z"/><path d="M247.1,136.8H166c-4.4,0-7.9,3.6-7.9,7.9v1.4c0,4.4,3.6,7.9,7.9,7.9h81.2c4.4,0,7.9-3.6,7.9-7.9v-1.4C255.1,140.4,251.5,136.8,247.1,136.8z"/><path d="M138.3,121.3C138.3,121.2,138.3,121.2,138.3,121.3C138.3,121.2,138.3,121.2,138.3,121.3L86.8,69.7c-3.4-3.4-8.9-3.4-12.3,0c-3.4,3.4-3.4,8.9,0,12.3l36.7,36.7H9.4c-4.7,0-8.5,3.8-8.5,8.5v0.4c0,4.7,3.8,8.5,8.5,8.5h101.9l-36.7,36.7c-3.4,3.4-3.4,8.9,0,12.3c3.4,3.4,8.9,3.4,12.3,0l51.4-51.4C141.7,130.1,141.7,124.6,138.3,121.3z"/></svg>
