<?xml version="1.0"?>
<svg version="1.1" xmlns="http://www.w3.org/2000/svg" xmlns:xlink="http://www.w3.org/1999/xlink" width="256" height="256">
    <desc iVinci="yes" version="4.6" gridStep="20" showGrid="no" snapToGrid="no" codePlatform="0"/>
    <g id="Layer1" name="Layer 2" opacity="1">
        <g id="Shape1">
            <desc shapeID="1" type="0" basicInfo-basicType="0" basicInfo-roundedRectRadius="12" basicInfo-polygonSides="6" basicInfo-starPoints="5" bounding="rect(-38.8815,-44.2581,77.763,88.5162)" text="" font-familyName="Helvetica" font-pixelSize="20" font-bold="0" font-underline="0" font-alignment="1" strokeStyle="0" markerStart="0" markerEnd="0" shadowEnabled="0" shadowOffsetX="0" shadowOffsetY="2" shadowBlur="4" shadowOpacity="160" blurEnabled="0" blurRadius="4" transform="matrix(-0.991525,-1.21464e-05,1.21464e-05,-0.991525,128.275,210.565)" pers-center="0,0" pers-size="0,0" pers-start="0,0" pers-end="0,0" locked="0" mesh="" flag=""/>
            <path id="shapePath1" d="M166.827,247.71 C154.855,251.989 141.828,254.448 128.385,254.448 C115.004,254.447 101.648,251.881 89.7225,247.639 L128.276,166.682 L166.827,247.71 Z" style="stroke:none;fill-rule:evenodd;fill:#007cb7;fill-opacity:1;"/>
        </g>
        <g id="Shape2">
            <desc shapeID="2" type="0" basicInfo-basicType="0" basicInfo-roundedRectRadius="12" basicInfo-polygonSides="6" basicInfo-starPoints="5" bounding="rect(-38.8815,-44.2581,77.763,88.5162)" text="" font-familyName="Helvetica" font-pixelSize="20" font-bold="0" font-underline="0" font-alignment="1" strokeStyle="0" markerStart="0" markerEnd="0" shadowEnabled="0" shadowOffsetX="0" shadowOffsetY="2" shadowBlur="4" shadowOpacity="160" blurEnabled="0" blurRadius="4" transform="matrix(0.701105,0.701124,0.701124,-0.701105,79.1501,190.128)" pers-center="0,0" pers-size="0,0" pers-start="0,0" pers-end="0,0" locked="0" mesh="" flag=""/>
            <path id="shapePath2" d="M25.6244,189.132 C31.0638,200.623 38.5362,211.574 48.0414,221.079 C57.5033,230.541 68.7617,238.171 80.1939,243.604 L110.18,159.098 L25.6244,189.132 Z" style="stroke:none;fill-rule:evenodd;fill:#007cb7;fill-opacity:1;"/>
        </g>
        <g id="Shape3">
            <desc shapeID="3" type="0" basicInfo-basicType="0" basicInfo-roundedRectRadius="12" basicInfo-polygonSides="6" basicInfo-starPoints="5" bounding="rect(-38.8815,-44.2581,77.763,88.5162)" text="" font-familyName="Helvetica" font-pixelSize="20" font-bold="0" font-underline="0" font-alignment="1" strokeStyle="0" markerStart="0" markerEnd="0" shadowEnabled="0" shadowOffsetX="0" shadowOffsetY="2" shadowBlur="4" shadowOpacity="160" blurEnabled="0" blurRadius="4" transform="matrix(-1.56333e-05,0.991525,0.991525,1.56333e-05,59.3697,141.665)" pers-center="0,0" pers-size="0,0" pers-start="0,0" pers-end="0,0" locked="0" mesh="" flag=""/>
            <path id="shapePath3" d="M22.2255,103.113 C17.9462,115.084 15.4869,128.111 15.4867,141.554 C15.4865,154.935 18.0526,168.291 22.2943,180.217 L103.253,141.666 L22.2255,103.113 Z" style="stroke:none;fill-rule:evenodd;fill:#007cb7;fill-opacity:1;"/>
        </g>
        <g id="Shape4">
            <desc shapeID="4" type="0" basicInfo-basicType="0" basicInfo-roundedRectRadius="12" basicInfo-polygonSides="6" basicInfo-starPoints="5" bounding="rect(-38.8815,-44.2581,77.763,88.5162)" text="" font-familyName="Helvetica" font-pixelSize="20" font-bold="0" font-underline="0" font-alignment="1" strokeStyle="0" markerStart="0" markerEnd="0" shadowEnabled="0" shadowOffsetX="0" shadowOffsetY="2" shadowBlur="4" shadowOpacity="160" blurEnabled="0" blurRadius="4" transform="matrix(-0.701127,0.701102,0.701102,0.701127,79.1515,93.0471)" pers-center="0,0" pers-size="0,0" pers-start="0,0" pers-end="0,0" locked="0" mesh="" flag=""/>
            <path id="shapePath4" d="M80.1475,39.5214 C68.6561,44.9608 57.7059,52.4331 48.2003,61.9383 C38.7382,71.4002 31.1087,82.6585 25.6752,94.0907 L110.181,124.078 L80.1475,39.5214 Z" style="stroke:none;fill-rule:evenodd;fill:#007cb7;fill-opacity:1;"/>
        </g>
        <g id="Shape5">
            <desc shapeID="5" type="0" basicInfo-basicType="0" basicInfo-roundedRectRadius="12" basicInfo-polygonSides="6" basicInfo-starPoints="5" bounding="rect(-38.8815,-44.2581,77.763,88.5162)" text="" font-familyName="Helvetica" font-pixelSize="20" font-bold="0" font-underline="0" font-alignment="1" strokeStyle="0" markerStart="0" markerEnd="0" shadowEnabled="0" shadowOffsetX="0" shadowOffsetY="2" shadowBlur="4" shadowOpacity="160" blurEnabled="0" blurRadius="4" transform="matrix(-0.701122,0.701107,-0.701107,-0.701122,176.848,190.129)" pers-center="0,0" pers-size="0,0" pers-start="0,0" pers-end="0,0" locked="0" mesh="" flag=""/>
            <path id="shapePath5" d="M230.374,189.135 C224.934,200.626 217.462,211.576 207.956,221.081 C198.494,230.543 187.236,238.172 175.803,243.605 L145.819,159.099 L230.374,189.135 Z" style="stroke:none;fill-rule:evenodd;fill:#007cb7;fill-opacity:1;"/>
        </g>
        <g id="Shape6">
            <desc shapeID="6" type="0" basicInfo-basicType="0" basicInfo-roundedRectRadius="12" basicInfo-polygonSides="6" basicInfo-starPoints="5" bounding="rect(-38.8815,-44.2581,77.763,88.5162)" text="" font-familyName="Helvetica" font-pixelSize="20" font-bold="0" font-underline="0" font-alignment="1" strokeStyle="0" markerStart="0" markerEnd="0" shadowEnabled="0" shadowOffsetX="0" shadowOffsetY="2" shadowBlur="4" shadowOpacity="160" blurEnabled="0" blurRadius="4" transform="matrix(-8.65953e-06,0.991525,-0.991525,-8.65953e-06,196.63,141.667)" pers-center="0,0" pers-size="0,0" pers-start="0,0" pers-end="0,0" locked="0" mesh="" flag=""/>
            <path id="shapePath6" d="M233.775,103.115 C238.054,115.087 240.513,128.114 240.513,141.557 C240.513,154.938 237.946,168.294 233.704,180.219 L152.747,141.667 L233.775,103.115 Z" style="stroke:none;fill-rule:evenodd;fill:#007cb7;fill-opacity:1;"/>
        </g>
        <g id="Shape7">
            <desc shapeID="7" type="0" basicInfo-basicType="0" basicInfo-roundedRectRadius="12" basicInfo-polygonSides="6" basicInfo-starPoints="5" bounding="rect(-38.8815,-44.2581,77.763,88.5162)" text="" font-familyName="Helvetica" font-pixelSize="20" font-bold="0" font-underline="0" font-alignment="1" strokeStyle="0" markerStart="0" markerEnd="0" shadowEnabled="0" shadowOffsetX="0" shadowOffsetY="2" shadowBlur="4" shadowOpacity="160" blurEnabled="0" blurRadius="4" transform="matrix(0.70111,0.701119,-0.701119,0.70111,176.849,93.0483)" pers-center="0,0" pers-size="0,0" pers-start="0,0" pers-end="0,0" locked="0" mesh="" flag=""/>
            <path id="shapePath7" d="M175.855,39.5226 C187.346,44.9623 198.296,52.4348 207.801,61.9403 C217.263,71.4024 224.892,82.6609 230.326,94.0932 L145.819,124.078 L175.855,39.5226 Z" style="stroke:none;fill-rule:evenodd;fill:#007cb7;fill-opacity:1;"/>
        </g>
        <g id="Shape8">
            <desc shapeID="8" type="0" basicInfo-basicType="0" basicInfo-roundedRectRadius="12" basicInfo-polygonSides="6" basicInfo-starPoints="5" bounding="rect(-38.8815,-44.2581,77.763,88.5162)" text="" font-familyName="Helvetica" font-pixelSize="20" font-bold="0" font-underline="0" font-alignment="1" strokeStyle="0" markerStart="0" markerEnd="0" shadowEnabled="0" shadowOffsetX="0" shadowOffsetY="2" shadowBlur="4" shadowOpacity="160" blurEnabled="0" blurRadius="4" transform="matrix(0.991525,3.69776e-06,-3.69776e-06,0.991525,127.987,45.4354)" pers-center="0,0" pers-size="0,0" pers-start="0,0" pers-end="0,0" locked="0" mesh="" flag=""/>
            <path id="shapePath8" d="M89.4354,8.29048 C101.407,4.01135 114.434,1.55235 127.877,1.55241 C141.258,1.55246 154.614,4.11877 166.539,8.36073 L127.987,89.3184 L89.4354,8.29048 Z" style="stroke:none;fill-rule:evenodd;fill:#e48e1a;fill-opacity:1;"/>
        </g>
    </g>
</svg>
