<?xml version="1.0" standalone="no"?>
<!DOCTYPE svg PUBLIC "-//W3C//DTD SVG 20010904//EN"
 "http://www.w3.org/TR/2001/REC-SVG-20010904/DTD/svg10.dtd">
<svg version="1.0" xmlns="http://www.w3.org/2000/svg"
 width="700.000000pt" height="700.000000pt" viewBox="0 0 700.000000 700.000000"
 preserveAspectRatio="xMidYMid meet">
<metadata>
Created by potrace 1.11, written by Peter Selinger 2001-2013
</metadata>
<g transform="translate(0.000000,700.000000) scale(0.100000,-0.100000)"
fill="#000000" stroke="none">
<path d="M3310 6952 c-82 -4 -302 -32 -374 -47 -39 -8 -82 -16 -96 -19 -75
-13 -375 -100 -389 -112 -2 -2 23 -61 57 -131 33 -71 99 -208 146 -307 47 -98
86 -180 86 -181 0 -2 43 -92 95 -200 52 -108 95 -198 95 -200 0 -1 39 -83 86
-181 47 -99 101 -210 119 -249 51 -108 116 -246 194 -410 40 -82 93 -194 118
-247 25 -54 49 -98 53 -98 4 0 28 46 55 103 76 160 157 331 225 472 34 72 75
157 90 190 15 33 56 119 90 190 34 72 84 175 110 230 46 98 63 134 221 464 44
90 79 165 79 166 0 2 38 82 85 179 46 97 85 183 87 193 2 13 -14 22 -67 40
-82 28 -280 82 -345 94 -287 52 -368 60 -605 63 -93 0 -190 0 -215 -2z"/>
<path d="M2085 5866 c-515 -269 -944 -673 -1235 -1166 -95 -160 -151 -274
-137 -278 15 -4 188 -65 277 -97 36 -13 245 -87 465 -165 220 -78 454 -161
520 -185 66 -24 188 -66 270 -95 83 -28 159 -56 170 -60 11 -5 58 -22 105 -39
47 -16 175 -61 284 -100 110 -39 201 -70 203 -68 1 2 -40 125 -93 273 -81 227
-174 489 -335 942 -16 45 -43 121 -60 170 -17 48 -33 94 -36 102 -10 27 -79
220 -183 515 -56 160 -105 293 -109 297 -3 3 -51 -17 -106 -46z"/>
<path d="M4801 5897 c-10 -26 -49 -136 -136 -382 -35 -99 -82 -232 -105 -295
-45 -124 -95 -265 -243 -685 -53 -148 -147 -416 -211 -594 -64 -179 -114 -326
-113 -328 2 -1 111 36 243 83 131 47 257 92 279 99 22 7 110 38 195 68 85 31
218 78 295 105 182 65 710 252 995 353 124 44 240 85 258 92 17 6 32 16 32 22
0 31 -173 331 -272 470 -69 97 -68 97 -154 200 -257 311 -640 613 -997 786
l-58 28 -8 -22z"/>
<path d="M599 4152 c-49 -125 -104 -346 -143 -582 -34 -203 -39 -565 -11 -800
25 -202 88 -480 146 -641 l21 -56 281 134 c155 74 305 145 332 158 28 13 111
52 185 88 74 36 182 87 240 115 58 27 155 73 215 102 331 159 417 200 420 200
3 0 160 75 450 214 l89 43 -44 21 c-49 22 -211 99 -390 185 -177 84 -338 161
-530 252 -96 45 -251 119 -344 164 -93 45 -170 81 -171 81 -2 0 -96 45 -210
100 -114 55 -208 100 -210 100 -3 0 -42 18 -87 41 -46 22 -116 56 -156 74
l-73 34 -10 -27z"/>
<path d="M6221 4099 c-90 -43 -165 -79 -166 -79 -1 0 -87 -41 -191 -91 -104
-50 -208 -99 -231 -110 -23 -10 -113 -53 -200 -95 -87 -42 -185 -89 -218 -104
-57 -26 -149 -70 -412 -196 -65 -31 -154 -73 -198 -94 -44 -21 -147 -70 -230
-110 -82 -40 -161 -77 -175 -82 -23 -10 -18 -13 75 -59 55 -26 138 -66 185
-88 47 -22 148 -70 225 -106 141 -68 463 -221 675 -322 63 -30 147 -70 185
-88 39 -18 150 -72 248 -119 98 -47 180 -86 181 -86 2 0 77 -36 167 -79 90
-43 180 -85 199 -93 19 -8 39 -17 43 -19 11 -5 87 232 112 349 15 72 45 236
50 277 4 28 9 61 11 75 17 105 23 437 11 580 -4 41 -9 99 -12 129 -11 120 -55
336 -105 506 -36 126 -57 186 -62 184 -2 0 -77 -36 -167 -80z"/>
<path d="M2960 2633 c-19 -9 -102 -39 -185 -68 -298 -104 -394 -138 -480 -171
-11 -4 -24 -8 -30 -9 -5 -2 -35 -12 -65 -23 -30 -11 -158 -57 -285 -102 -126
-45 -297 -106 -380 -135 -208 -75 -741 -264 -793 -282 l-42 -15 58 -112 c297
-567 742 -1012 1314 -1315 69 -37 119 -58 123 -52 3 6 30 79 59 163 30 84 102
288 161 453 185 521 276 777 312 880 19 55 43 123 53 150 26 66 230 645 230
651 0 7 -13 3 -50 -13z"/>
<path d="M3990 2645 c0 -2 34 -100 76 -217 84 -236 149 -420 247 -698 36 -102
72 -203 80 -225 9 -22 68 -188 132 -370 64 -181 127 -359 140 -395 13 -36 49
-137 80 -225 31 -88 59 -163 63 -167 6 -6 152 69 287 146 74 42 249 165 350
247 153 124 271 239 420 409 112 128 277 375 377 566 l58 111 -47 18 c-59 21
-152 54 -263 93 -460 163 -554 197 -610 217 -83 30 -334 119 -520 184 -80 28
-153 56 -162 61 -10 6 -23 10 -29 10 -6 0 -106 34 -223 76 -116 41 -218 78
-226 81 -8 2 -63 22 -122 44 -60 21 -108 37 -108 34z"/>
<path d="M3489 2408 c-7 -18 -55 -120 -106 -227 -51 -106 -93 -194 -93 -196 0
-1 -38 -80 -84 -176 -95 -199 -159 -331 -226 -474 -151 -320 -231 -487 -240
-503 -5 -9 -30 -62 -56 -117 -26 -55 -71 -152 -101 -215 -95 -199 -123 -260
-123 -269 0 -5 17 -13 38 -19 321 -92 376 -105 645 -147 153 -24 614 -25 733
-1 12 2 45 7 75 11 77 10 280 52 369 76 114 32 229 70 234 77 2 4 -29 76 -70
161 -41 84 -74 155 -74 156 0 2 -34 75 -76 162 -42 87 -93 194 -114 238 -21
44 -66 139 -100 210 -34 72 -80 168 -102 215 -22 47 -65 137 -95 200 -31 63
-80 167 -110 230 -199 420 -288 607 -299 623 -10 16 -13 14 -25 -15z"/>
</g>
</svg>
