<?xml version="1.0"?><svg style="display:none" xmlns="http://www.w3.org/2000/svg" xmlns:xlink="http://www.w3.org/1999/xlink"><symbol viewBox="0 0 1792 1792" id="arrows" xmlns="http://www.w3.org/2000/svg"><path d="M1755.75 667.22l-814.712 814.7 99.202 99.21c13.44 13.43 20.15 29.97 20.15 49.6 0 19.63-6.71 36.17-20.15 49.6-13.43 13.44-29.97 20.15-49.6 20.15H593.825c-19.634 0-36.168-6.72-49.601-20.15-13.434-13.43-20.151-29.97-20.151-49.6l.001-396.82c0-19.63 6.717-36.16 20.151-49.6 13.434-13.43 29.967-20.15 49.601-20.15s36.168 6.72 49.602 20.15l99.204 99.21 814.708-814.708c23.79-23.791 23.79-23.791 45.37-2.207l150.86 150.86c25.97 25.964 25.97 25.964 2.18 49.755z" fill-rule="evenodd"/><g><path d="M36.254 1124.78l814.713-814.704-99.203-99.204c-13.434-13.434-20.151-29.968-20.15-49.602 0-19.634 6.717-36.168 20.151-49.602 13.434-13.434 29.968-20.15 49.602-20.15l396.813.003c19.63 0 36.17 6.717 49.6 20.151 13.44 13.434 20.15 29.968 20.15 49.602v396.814c0 19.634-6.72 36.168-20.15 49.602-13.44 13.434-29.97 20.15-49.6 20.15-19.64 0-36.17-6.717-49.6-20.151l-99.21-99.204-814.71 814.695c-23.791 23.8-23.791 23.8-45.375 2.21L38.428 1174.53c-25.965-25.96-25.965-25.96-2.174-49.75z" fill-rule="evenodd"/></g></symbol><symbol viewBox="0 0 1792 1792" id="calculator" xmlns="http://www.w3.org/2000/svg"><path d="M384 1536q0-53-37.5-90.5T256 1408t-90.5 37.5T128 1536t37.5 90.5T256 1664t90.5-37.5T384 1536zm384 0q0-53-37.5-90.5T640 1408t-90.5 37.5T512 1536t37.5 90.5T640 1664t90.5-37.5T768 1536zm-384-384q0-53-37.5-90.5T256 1024t-90.5 37.5T128 1152t37.5 90.5T256 1280t90.5-37.5T384 1152zm768 384q0-53-37.5-90.5T1024 1408t-90.5 37.5T896 1536t37.5 90.5 90.5 37.5 90.5-37.5 37.5-90.5zm-384-384q0-53-37.5-90.5T640 1024t-90.5 37.5T512 1152t37.5 90.5T640 1280t90.5-37.5T768 1152zM384 768q0-53-37.5-90.5T256 640t-90.5 37.5T128 768t37.5 90.5T256 896t90.5-37.5T384 768zm768 384q0-53-37.5-90.5T1024 1024t-90.5 37.5T896 1152t37.5 90.5 90.5 37.5 90.5-37.5 37.5-90.5zM768 768q0-53-37.5-90.5T640 640t-90.5 37.5T512 768t37.5 90.5T640 896t90.5-37.5T768 768zm768 768v-384q0-52-38-90t-90-38-90 38-38 90v384q0 52 38 90t90 38 90-38 38-90zm-384-768q0-53-37.5-90.5T1024 640t-90.5 37.5T896 768t37.5 90.5T1024 896t90.5-37.5T1152 768zm384-320V192q0-26-19-45t-45-19H192q-26 0-45 19t-19 45v256q0 26 19 45t45 19h1280q26 0 45-19t19-45zm0 320q0-53-37.5-90.5T1408 640t-90.5 37.5T1280 768t37.5 90.5T1408 896t90.5-37.5T1536 768zm128-640v1536q0 52-38 90t-90 38H128q-52 0-90-38t-38-90V128q0-52 38-90t90-38h1408q52 0 90 38t38 90z"/></symbol><symbol viewBox="0 0 1792 1792" id="caret" xmlns="http://www.w3.org/2000/svg"><path d="M1395 736q0 13-10 23l-466 466q-10 10-23 10t-23-10L407 759q-10-10-10-23t10-23l50-50q10-10 23-10t23 10l393 393 393-393q10-10 23-10t23 10l50 50q10 10 10 23z"/></symbol><symbol viewBox="0 0 1792 1792" id="check" xmlns="http://www.w3.org/2000/svg"><path d="M1472 930v318q0 119-84.5 203.5T1184 1536H352q-119 0-203.5-84.5T64 1248V416q0-119 84.5-203.5T352 128h832q63 0 117 25 15 7 18 23 3 17-9 29l-49 49q-10 10-23 10-3 0-9-2-23-6-45-6H352q-66 0-113 47t-47 113v832q0 66 47 113t113 47h832q66 0 113-47t47-113V994q0-13 9-22l64-64q10-10 23-10 6 0 12 3 20 8 20 29zm231-489l-814 814q-24 24-57 24t-57-24L345 825q-24-24-24-57t24-57l110-110q24-24 57-24t57 24l263 263 647-647q24-24 57-24t57 24l110 110q24 24 24 57t-24 57z"/></symbol><symbol viewBox="0 0 1792 1792" id="facebook" xmlns="http://www.w3.org/2000/svg"><path d="M1343 12v264h-157q-86 0-116 36t-30 108v189h293l-39 296h-254v759H734V905H479V609h255V391q0-186 104-288.5T1115 0q147 0 228 12z"/></symbol><symbol viewBox="0 0 1792 1792" id="file" xmlns="http://www.w3.org/2000/svg"><path d="M1596 380q28 28 48 76t20 88v1152q0 40-28 68t-68 28H224q-40 0-68-28t-28-68V96q0-40 28-68t68-28h896q40 0 88 20t76 48zm-444-244v376h376q-10-29-22-41l-313-313q-12-12-41-22zm384 1528V640h-416q-40 0-68-28t-28-68V128H256v1536h1280z"/></symbol><symbol viewBox="0 0 1792 1792" id="linkedin" xmlns="http://www.w3.org/2000/svg"><path d="M477 625v991H147V625h330zm21-306q1 73-50.5 122T312 490h-2q-82 0-132-49t-50-122q0-74 51.5-122.5T314 148t133 48.5T498 319zm1166 729v568h-329v-530q0-105-40.5-164.5T1168 862q-63 0-105.5 34.5T999 982q-11 30-11 81v553H659q2-399 2-647t-1-296l-1-48h329v144h-2q20-32 41-56t56.5-52 87-43.5T1285 602q171 0 275 113.5t104 332.5z"/></symbol><symbol viewBox="0 0 1792 1792" id="list" xmlns="http://www.w3.org/2000/svg"><path d="M256 1312v192q0 13-9.5 22.5T224 1536H32q-13 0-22.5-9.5T0 1504v-192q0-13 9.5-22.5T32 1280h192q13 0 22.5 9.5t9.5 22.5zm0-384v192q0 13-9.5 22.5T224 1152H32q-13 0-22.5-9.5T0 1120V928q0-13 9.5-22.5T32 896h192q13 0 22.5 9.5T256 928zm0-384v192q0 13-9.5 22.5T224 768H32q-13 0-22.5-9.5T0 736V544q0-13 9.5-22.5T32 512h192q13 0 22.5 9.5T256 544zm1536 768v192q0 13-9.5 22.5t-22.5 9.5H416q-13 0-22.5-9.5T384 1504v-192q0-13 9.5-22.5t22.5-9.5h1344q13 0 22.5 9.5t9.5 22.5zM256 160v192q0 13-9.5 22.5T224 384H32q-13 0-22.5-9.5T0 352V160q0-13 9.5-22.5T32 128h192q13 0 22.5 9.5T256 160zm1536 768v192q0 13-9.5 22.5t-22.5 9.5H416q-13 0-22.5-9.5T384 1120V928q0-13 9.5-22.5T416 896h1344q13 0 22.5 9.5t9.5 22.5zm0-384v192q0 13-9.5 22.5T1760 768H416q-13 0-22.5-9.5T384 736V544q0-13 9.5-22.5T416 512h1344q13 0 22.5 9.5t9.5 22.5zm0-384v192q0 13-9.5 22.5T1760 384H416q-13 0-22.5-9.5T384 352V160q0-13 9.5-22.5T416 128h1344q13 0 22.5 9.5t9.5 22.5z"/></symbol></svg>