<?xml version="1.0" encoding="utf-8"?><svg style="display:none" xmlns="http://www.w3.org/2000/svg" xmlns:xlink="http://www.w3.org/1999/xlink"><symbol viewBox="0 0 1792 1792" id="calculator" xmlns="http://www.w3.org/2000/svg"><path d="M384 1536q0-53-37.5-90.5T256 1408t-90.5 37.5T128 1536t37.5 90.5T256 1664t90.5-37.5T384 1536zm384 0q0-53-37.5-90.5T640 1408t-90.5 37.5T512 1536t37.5 90.5T640 1664t90.5-37.5T768 1536zm-384-384q0-53-37.5-90.5T256 1024t-90.5 37.5T128 1152t37.5 90.5T256 1280t90.5-37.5T384 1152zm768 384q0-53-37.5-90.5T1024 1408t-90.5 37.5T896 1536t37.5 90.5 90.5 37.5 90.5-37.5 37.5-90.5zm-384-384q0-53-37.5-90.5T640 1024t-90.5 37.5T512 1152t37.5 90.5T640 1280t90.5-37.5T768 1152zM384 768q0-53-37.5-90.5T256 640t-90.5 37.5T128 768t37.5 90.5T256 896t90.5-37.5T384 768zm768 384q0-53-37.5-90.5T1024 1024t-90.5 37.5T896 1152t37.5 90.5 90.5 37.5 90.5-37.5 37.5-90.5zM768 768q0-53-37.5-90.5T640 640t-90.5 37.5T512 768t37.5 90.5T640 896t90.5-37.5T768 768zm768 768v-384q0-52-38-90t-90-38-90 38-38 90v384q0 52 38 90t90 38 90-38 38-90zm-384-768q0-53-37.5-90.5T1024 640t-90.5 37.5T896 768t37.5 90.5T1024 896t90.5-37.5T1152 768zm384-320V192q0-26-19-45t-45-19H192q-26 0-45 19t-19 45v256q0 26 19 45t45 19h1280q26 0 45-19t19-45zm0 320q0-53-37.5-90.5T1408 640t-90.5 37.5T1280 768t37.5 90.5T1408 896t90.5-37.5T1536 768zm128-640v1536q0 52-38 90t-90 38H128q-52 0-90-38t-38-90V128q0-52 38-90t90-38h1408q52 0 90 38t38 90z"/></symbol><symbol viewBox="0 0 1792 1792" id="certificate" xmlns="http://www.w3.org/2000/svg"><path d="M1504 896l138 135q30 28 20 70-12 41-52 51l-188 48 53 186q12 41-19 70-29 31-70 19l-186-53-48 188q-10 40-51 52-12 2-19 2-31 0-51-22l-135-138-135 138q-28 30-70 20-41-11-51-52l-48-188-186 53q-41 12-70-19-31-29-19-70l53-186-188-48q-40-10-52-51-10-42 20-70l138-135-138-135q-30-28-20-70 12-41 52-51l188-48-53-186q-12-41 19-70 29-31 70-19l186 53 48-188q10-41 51-51 41-12 70 19l135 139 135-139q29-30 70-19 41 10 51 51l48 188 186-53q41-12 70 19 31 29 19 70l-53 186 188 48q40 10 52 51 10 42-20 70z"/></symbol><symbol viewBox="0 0 1792 1792" id="dollar" xmlns="http://www.w3.org/2000/svg"><path d="M1362 1185q0 153-99.5 263.5T1004 1585v175q0 14-9 23t-23 9H837q-13 0-22.5-9.5T805 1760v-175q-66-9-127.5-31T576 1509.5t-74-48-46.5-37.5-17.5-18q-17-21-2-41l103-135q7-10 23-12 15-2 24 9l2 2q113 99 243 125 37 8 74 8 81 0 142.5-43t61.5-122q0-28-15-53t-33.5-42-58.5-37.5-66-32-80-32.5q-39-16-61.5-25T733 948.5t-62.5-31T614 882t-53.5-42.5-43.5-49-35.5-58-21-66.5-8.5-78q0-138 98-242t255-134V32q0-13 9.5-22.5T837 0h135q14 0 23 9t9 23v176q57 6 110.5 23t87 33.5T1265 302t39 29 15 14q17 18 5 38l-81 146q-8 15-23 16-14 3-27-7-3-3-14.5-12t-39-26.5-58.5-32-74.5-26T921 430q-95 0-155 43t-60 111q0 26 8.5 48t29.5 41.5 39.5 33 56 31 60.5 27 70 27.5q53 20 81 31.5t76 35 75.5 42.5 62 50 53 63.5 31.5 76.5 13 94z"/></symbol><symbol viewBox="0 0 1792 1792" id="caret" xmlns="http://www.w3.org/2000/svg"><path d="M1395 736q0 13-10 23l-466 466q-10 10-23 10t-23-10L407 759q-10-10-10-23t10-23l50-50q10-10 23-10t23 10l393 393 393-393q10-10 23-10t23 10l50 50q10 10 10 23z"/></symbol><symbol viewBox="0 0 1792 1792" id="facebook" xmlns="http://www.w3.org/2000/svg"><path d="M1343 12v264h-157q-86 0-116 36t-30 108v189h293l-39 296h-254v759H734V905H479V609h255V391q0-186 104-288.5T1115 0q147 0 228 12z"/></symbol><symbol viewBox="0 0 1792 1792" id="file" xmlns="http://www.w3.org/2000/svg"><path d="M1596 380q28 28 48 76t20 88v1152q0 40-28 68t-68 28H224q-40 0-68-28t-28-68V96q0-40 28-68t68-28h896q40 0 88 20t76 48zm-444-244v376h376q-10-29-22-41l-313-313q-12-12-41-22zm384 1528V640h-416q-40 0-68-28t-28-68V128H256v1536h1280z"/></symbol><symbol viewBox="0 0 2048 1792" id="chart" xmlns="http://www.w3.org/2000/svg"><path d="M2048 1536v128H0V128h128v1408h1920zM1920 288v435q0 21-19.5 29.5T1865 745l-121-121-633 633q-10 10-23 10t-23-10l-233-233-416 416-192-192 585-585q10-10 23-10t23 10l233 233 464-464-121-121q-16-16-7.5-35.5T1453 256h435q14 0 23 9t9 23z"/></symbol><symbol viewBox="0 0 1792 1792" id="linkedin" xmlns="http://www.w3.org/2000/svg"><path d="M477 625v991H147V625h330zm21-306q1 73-50.5 122T312 490h-2q-82 0-132-49t-50-122q0-74 51.5-122.5T314 148t133 48.5T498 319zm1166 729v568h-329v-530q0-105-40.5-164.5T1168 862q-63 0-105.5 34.5T999 982q-11 30-11 81v553H659q2-399 2-647t-1-296l-1-48h329v144h-2q20-32 41-56t56.5-52 87-43.5T1285 602q171 0 275 113.5t104 332.5z"/></symbol></svg>
